<?xml version="1.0" encoding="UTF-8"?>
<svg id="Layer_2"
	xmlns="http://www.w3.org/2000/svg" viewBox="0 0 558.51 216.26">
	<g id="Layer_1-2">
		<g>
			<path d="m101.91,98.18h-62.03v67.4H0V1.87h39.88v64.13h62.03V1.87h39.88v163.71h-39.88v-67.4Z" style="fill:#f2f7e5;"/>
			<path d="m246.03,0c38.95,0,68.33,21.92,77.66,57.37h-43.84c-6.76-13.99-19.12-20.99-34.28-20.99-24.49,0-41.28,18.19-41.28,47.11s16.79,47.11,41.28,47.11c15.16,0,27.52-7,34.28-20.99h43.84c-9.33,35.45-38.71,57.14-77.66,57.14-48.27,0-82.32-34.28-82.32-83.25S197.75,0,246.03,0Z" style="fill:#f2f7e5;"/>
			<path d="m450.08,98.18h-62.03v67.4h-39.88V1.87h39.88v64.13h62.03V1.87h39.88v163.71h-39.88v-67.4Z" style="fill:#f2f7e5;"/>
			<path d="m518.63,1.87h39.88v163.71h-39.88V1.87Z" style="fill:#f2f7e5;"/>
			<path d="m13.56,206.87H4.32v9.17H0v-21.56h4.32v8.86h9.23v-8.86h4.32v21.56h-4.32v-9.17Z" style="fill:#f2f7e5;"/>
			<path d="m22.14,194.48h4.32v21.56h-4.32v-21.56Z" style="fill:#f2f7e5;"/>
			<path d="m35.05,194.48v18.13h7.1v3.43h-11.43v-21.56h4.32Z" style="fill:#f2f7e5;"/>
			<path d="m49.23,194.48v18.13h7.1v3.43h-11.43v-21.56h4.32Z" style="fill:#f2f7e5;"/>
			<path d="m76.32,194.2c4.79,0,8.68,2.56,10.13,6.98h-4.97c-1.02-2.07-2.87-3.09-5.19-3.09-3.77,0-6.45,2.75-6.45,7.13s2.69,7.13,6.45,7.13c2.32,0,4.17-1.02,5.19-3.12h4.97c-1.45,4.45-5.34,6.98-10.13,6.98-6.21,0-10.93-4.54-10.93-10.99s4.73-11.03,10.93-11.03Z" style="fill:#f2f7e5;"/>
			<path d="m100.16,216.26c-6.08,0-11.06-4.57-11.06-11.06s4.97-11.03,11.06-11.03,11.03,4.57,11.03,11.03-4.91,11.06-11.03,11.06Zm0-3.86c3.89,0,6.58-2.81,6.58-7.2s-2.69-7.13-6.58-7.13-6.61,2.75-6.61,7.13,2.69,7.2,6.61,7.2Z" style="fill:#f2f7e5;"/>
			<path d="m114.33,194.48h4.32v13.34c0,2.96,1.61,4.51,4.36,4.51s4.39-1.54,4.39-4.51v-13.34h4.35v13.31c0,5.68-4.08,8.46-8.8,8.46s-8.62-2.78-8.62-8.46v-13.31Z" style="fill:#f2f7e5;"/>
			<path d="m154.36,194.45v21.59h-4.32l-9.79-14.79v14.79h-4.32v-21.59h4.32l9.79,14.82v-14.82h4.32Z" style="fill:#f2f7e5;"/>
			<path d="m157.48,194.48h15.81v3.49h-5.74v18.07h-4.32v-18.07h-5.74v-3.49Z" style="fill:#f2f7e5;"/>
			<path d="m184.53,194.48c5.19,0,7.78,3,7.78,6.61,0,2.63-1.45,5.28-4.91,6.21l5.16,8.74h-5l-4.76-8.4h-2.04v8.4h-4.32v-21.56h8.09Zm-.15,3.58h-3.61v6.33h3.61c2.41,0,3.49-1.27,3.49-3.21s-1.08-3.12-3.49-3.12Z" style="fill:#f2f7e5;"/>
			<path d="m194.45,194.48h4.88l4.63,9.85,4.6-9.85h4.82l-7.29,14.05v7.5h-4.32v-7.5l-7.32-14.05Z" style="fill:#f2f7e5;"/>
			<path d="m236.79,206.87h-9.23v9.17h-4.32v-21.56h4.32v8.86h9.23v-8.86h4.32v21.56h-4.32v-9.17Z" style="fill:#f2f7e5;"/>
			<path d="m255.38,216.26c-6.08,0-11.06-4.57-11.06-11.06s4.97-11.03,11.06-11.03,11.03,4.57,11.03,11.03-4.91,11.06-11.03,11.06Zm0-3.86c3.89,0,6.58-2.81,6.58-7.2s-2.69-7.13-6.58-7.13-6.61,2.75-6.61,7.13,2.69,7.2,6.61,7.2Z" style="fill:#f2f7e5;"/>
			<path d="m269.62,194.48h4.91l6.86,16.03,6.86-16.03h4.88v21.56h-4.32v-14.02l-5.78,14.02h-3.27l-5.81-14.02v14.02h-4.32v-21.56Z" style="fill:#f2f7e5;"/>
			<path d="m309.89,197.97h-8.18v5.4h7.26v3.43h-7.26v5.71h8.18v3.52h-12.51v-21.59h12.51v3.52Z" style="fill:#f2f7e5;"/>
			<path d="m321.17,194.48h4.32v21.56h-4.32v-21.56Z" style="fill:#f2f7e5;"/>
			<path d="m329.75,194.48h4.91l6.86,16.03,6.86-16.03h4.88v21.56h-4.32v-14.02l-5.78,14.02h-3.27l-5.81-14.02v14.02h-4.32v-21.56Z" style="fill:#f2f7e5;"/>
			<path d="m365.45,207.76h-3.61v8.28h-4.32v-21.56h7.94c5.19,0,7.78,2.93,7.78,6.67,0,3.27-2.22,6.61-7.78,6.61Zm-.18-3.49c2.44,0,3.52-1.2,3.52-3.12s-1.08-3.15-3.52-3.15h-3.43v6.27h3.43Z" style="fill:#f2f7e5;"/>
			<path d="m384.39,194.48c5.19,0,7.78,3,7.78,6.61,0,2.63-1.45,5.28-4.91,6.21l5.16,8.74h-5l-4.76-8.4h-2.04v8.4h-4.32v-21.56h8.09Zm-.15,3.58h-3.61v6.33h3.61c2.41,0,3.49-1.27,3.49-3.21s-1.08-3.12-3.49-3.12Z" style="fill:#f2f7e5;"/>
			<path d="m406.1,216.26c-6.08,0-11.06-4.57-11.06-11.06s4.97-11.03,11.06-11.03,11.03,4.57,11.03,11.03-4.91,11.06-11.03,11.06Zm0-3.86c3.89,0,6.58-2.81,6.58-7.2s-2.69-7.13-6.58-7.13-6.61,2.75-6.61,7.13,2.69,7.2,6.61,7.2Z" style="fill:#f2f7e5;"/>
			<path d="m435.1,194.48h4.6l-7.91,21.56h-5.25l-7.91-21.56h4.63l5.93,17.14,5.9-17.14Z" style="fill:#f2f7e5;"/>
			<path d="m454.8,197.97h-8.18v5.4h7.26v3.43h-7.26v5.71h8.18v3.52h-12.51v-21.59h12.51v3.52Z" style="fill:#f2f7e5;"/>
			<path d="m458.72,194.48h4.91l6.86,16.03,6.86-16.03h4.88v21.56h-4.32v-14.02l-5.78,14.02h-3.27l-5.81-14.02v14.02h-4.32v-21.56Z" style="fill:#f2f7e5;"/>
			<path d="m499,197.97h-8.18v5.4h7.26v3.43h-7.26v5.71h8.18v3.52h-12.51v-21.59h12.51v3.52Z" style="fill:#f2f7e5;"/>
			<path d="m521.36,194.45v21.59h-4.32l-9.79-14.79v14.79h-4.32v-21.59h4.32l9.79,14.82v-14.82h4.32Z" style="fill:#f2f7e5;"/>
			<path d="m524.48,194.48h15.81v3.49h-5.74v18.07h-4.32v-18.07h-5.74v-3.49Z" style="fill:#f2f7e5;"/>
			<path d="m550.88,216.26c-4.48,0-7.94-2.35-8-6.42h4.63c.12,1.73,1.27,2.87,3.27,2.87s3.24-1.08,3.24-2.63c0-4.66-11.12-1.85-11.09-9.67,0-3.89,3.15-6.24,7.6-6.24s7.44,2.25,7.72,6.15h-4.76c-.09-1.42-1.23-2.53-3.09-2.56-1.7-.06-2.96.77-2.96,2.53,0,4.32,11.06,1.91,11.06,9.51,0,3.4-2.72,6.45-7.63,6.45Z" style="fill:#f2f7e5;"/>
		</g>
	</g>
</svg>